<svg width="167" height="80" viewBox="0 0 167 80" fill="none" xmlns="http://www.w3.org/2000/svg">
<g filter="url(#filter0_ii_309_53)">
<path d="M25.4828 63.7373L33.43 59.1881C42.0027 54.2809 42.1873 47.0956 41.208 44.1164C39.5337 39.2887 36.022 37.0784 33.0093 35.7397C29.9966 34.401 25.2831 31.9937 24.3602 32.522C23.4373 33.0503 24.0391 34.3395 24.311 35.4091C24.583 36.4788 24.6509 39.0947 21.2157 41.0612L12.3969 46.1093C7.93621 48.6627 5.33942 54.71 8.77296 60.2326C12.2065 65.7551 19.6891 67.0538 25.4828 63.7373Z" fill="url(#paint0_linear_309_53)"/>
<path d="M25.4828 63.7373L33.43 59.1881C42.0027 54.2809 42.1873 47.0956 41.208 44.1164C39.5337 39.2887 36.022 37.0784 33.0093 35.7397C29.9966 34.401 25.2831 31.9937 24.3602 32.522C23.4373 33.0503 24.0391 34.3395 24.311 35.4091C24.583 36.4788 24.6509 39.0947 21.2157 41.0612L12.3969 46.1093C7.93621 48.6627 5.33942 54.71 8.77296 60.2326C12.2065 65.7551 19.6891 67.0538 25.4828 63.7373Z" stroke="white" stroke-width="0.354468"/>
</g>
<g filter="url(#filter1_ii_309_53)">
<path d="M20.5172 16.2627L12.57 20.8119C3.99733 25.7191 3.8127 32.9044 4.79198 35.8836C6.46634 40.7113 9.97799 42.9216 12.9907 44.2603C16.0034 45.599 20.7169 48.0063 21.6398 47.478C22.5627 46.9497 21.9609 45.6605 21.689 44.5909C21.417 43.5212 21.3491 40.9053 24.7843 38.9388L33.6031 33.8907C38.0638 31.3373 40.6606 25.29 37.227 19.7674C33.7935 14.2449 26.3109 12.9462 20.5172 16.2627Z" fill="url(#paint1_linear_309_53)"/>
<path d="M20.5172 16.2627L12.57 20.8119C3.99733 25.7191 3.8127 32.9044 4.79198 35.8836C6.46634 40.7113 9.97799 42.9216 12.9907 44.2603C16.0034 45.599 20.7169 48.0063 21.6398 47.478C22.5627 46.9497 21.9609 45.6605 21.689 44.5909C21.417 43.5212 21.3491 40.9053 24.7843 38.9388L33.6031 33.8907C38.0638 31.3373 40.6606 25.29 37.227 19.7674C33.7935 14.2449 26.3109 12.9462 20.5172 16.2627Z" stroke="white" stroke-width="0.354468"/>
</g>
<path d="M74.4551 35.3633C74.291 33.8047 73.0332 32.875 71.0371 32.875C68.959 32.875 67.8105 33.832 67.7832 35.1445C67.7559 36.5664 69.2598 37.2227 70.9551 37.6055L72.7324 38.043C76.123 38.8086 78.666 40.5312 78.666 43.8398C78.666 47.4766 75.8223 49.7734 71.0098 49.7734C66.2246 49.7734 63.1621 47.5586 63.0527 43.3203H67.0449C67.1816 45.3164 68.7676 46.3281 70.9551 46.3281C73.1152 46.3281 74.5098 45.3164 74.5098 43.8398C74.5098 42.5 73.2793 41.8711 71.1191 41.3242L68.959 40.8047C65.623 39.9844 63.5723 38.3164 63.5723 35.418C63.5723 31.8086 66.7441 29.4297 71.0645 29.4297C75.4395 29.4297 78.3379 31.8633 78.3926 35.3633H74.4551ZM81.2637 55.0781V34.6523H85.2559V37.1406H85.4199C85.9668 35.9375 87.1699 34.4609 89.6582 34.4609C92.9395 34.4609 95.6738 37.0039 95.6738 42.0898C95.6738 47.0391 93.0488 49.7461 89.6582 49.7461C87.2246 49.7461 85.9941 48.3516 85.4199 47.1211H85.3105V55.0781H81.2637ZM85.2285 42.0625C85.2285 44.7422 86.377 46.5195 88.373 46.5195C90.4512 46.5195 91.5449 44.6875 91.5449 42.0625C91.5449 39.4648 90.4512 37.6875 88.373 37.6875C86.3496 37.6875 85.2285 39.3828 85.2285 42.0625ZM105.025 49.8008C100.486 49.8008 97.6973 46.8477 97.6973 42.1445C97.6973 37.5508 100.514 34.4609 104.861 34.4609C108.771 34.4609 111.834 36.9219 111.834 41.9805V43.1289H101.689C101.689 45.3711 103.029 46.7656 105.107 46.7656C106.475 46.7656 107.459 46.1641 107.869 45.2617H111.725C111.15 47.9961 108.689 49.8008 105.025 49.8008ZM101.689 40.5859H108.006C108.006 38.7812 106.748 37.4961 104.943 37.4961C103.084 37.4961 101.758 38.877 101.689 40.5859ZM113.666 45.3438C113.666 42.0352 116.346 40.9414 119.189 40.7773C120.256 40.709 122.252 40.6133 122.881 40.5859V39.3828C122.854 38.1523 122.006 37.4141 120.502 37.4141C119.135 37.4141 118.26 38.043 118.041 39.0547H114.186C114.432 36.4844 116.674 34.4609 120.611 34.4609C123.838 34.4609 126.9 35.9102 126.9 39.4922V49.5H123.072V47.4492H122.963C122.225 48.8164 120.83 49.7734 118.615 49.7734C115.771 49.7734 113.666 48.2969 113.666 45.3438ZM117.549 45.2344C117.549 46.3828 118.479 46.9844 119.764 46.9844C121.596 46.9844 122.908 45.7539 122.881 44.1953V43.1016C122.266 43.1289 120.543 43.2246 119.846 43.293C118.451 43.4297 117.549 44.0859 117.549 45.2344ZM130.072 49.5V29.7031H134.174V38.4805H134.447L141.639 29.7031H146.588L139.205 38.5625L146.67 49.5H141.748L136.252 41.3242L134.174 43.8398V49.5H130.072ZM165.674 39.6016C165.674 46.0547 161.654 49.7734 156.432 49.7734C151.154 49.7734 147.162 46.0273 147.162 39.6016C147.162 33.1484 151.154 29.4297 156.432 29.4297C161.654 29.4297 165.674 33.1484 165.674 39.6016ZM161.49 39.6016C161.49 35.3633 159.494 33.0664 156.432 33.0664C153.369 33.0664 151.346 35.3633 151.346 39.6016C151.346 43.8398 153.369 46.1367 156.432 46.1367C159.494 46.1367 161.49 43.8398 161.49 39.6016Z" fill="#111111"/>
<defs>
<filter id="filter0_ii_309_53" x="6.46569" y="31.7211" width="35.8726" height="34.5484" filterUnits="userSpaceOnUse" color-interpolation-filters="sRGB">
<feFlood flood-opacity="0" result="BackgroundImageFix"/>
<feBlend mode="normal" in="SourceGraphic" in2="BackgroundImageFix" result="shape"/>
<feColorMatrix in="SourceAlpha" type="matrix" values="0 0 0 0 0 0 0 0 0 0 0 0 0 0 0 0 0 0 127 0" result="hardAlpha"/>
<feOffset dx="0.5492" dy="0.5492"/>
<feGaussianBlur stdDeviation="0.8238"/>
<feComposite in2="hardAlpha" operator="arithmetic" k2="-1" k3="1"/>
<feColorMatrix type="matrix" values="0 0 0 0 1 0 0 0 0 1 0 0 0 0 1 0 0 0 0.08 0"/>
<feBlend mode="normal" in2="shape" result="effect1_innerShadow_309_53"/>
<feColorMatrix in="SourceAlpha" type="matrix" values="0 0 0 0 0 0 0 0 0 0 0 0 0 0 0 0 0 0 127 0" result="hardAlpha"/>
<feOffset dx="-0.5492" dy="-0.5492"/>
<feGaussianBlur stdDeviation="0.8238"/>
<feComposite in2="hardAlpha" operator="arithmetic" k2="-1" k3="1"/>
<feColorMatrix type="matrix" values="0 0 0 0 1 0 0 0 0 1 0 0 0 0 1 0 0 0 0.08 0"/>
<feBlend mode="normal" in2="effect1_innerShadow_309_53" result="effect2_innerShadow_309_53"/>
</filter>
<filter id="filter1_ii_309_53" x="3.66149" y="13.7306" width="35.8731" height="34.5484" filterUnits="userSpaceOnUse" color-interpolation-filters="sRGB">
<feFlood flood-opacity="0" result="BackgroundImageFix"/>
<feBlend mode="normal" in="SourceGraphic" in2="BackgroundImageFix" result="shape"/>
<feColorMatrix in="SourceAlpha" type="matrix" values="0 0 0 0 0 0 0 0 0 0 0 0 0 0 0 0 0 0 127 0" result="hardAlpha"/>
<feOffset dx="0.5492" dy="0.5492"/>
<feGaussianBlur stdDeviation="0.8238"/>
<feComposite in2="hardAlpha" operator="arithmetic" k2="-1" k3="1"/>
<feColorMatrix type="matrix" values="0 0 0 0 1 0 0 0 0 1 0 0 0 0 1 0 0 0 0.08 0"/>
<feBlend mode="normal" in2="shape" result="effect1_innerShadow_309_53"/>
<feColorMatrix in="SourceAlpha" type="matrix" values="0 0 0 0 0 0 0 0 0 0 0 0 0 0 0 0 0 0 127 0" result="hardAlpha"/>
<feOffset dx="-0.5492" dy="-0.5492"/>
<feGaussianBlur stdDeviation="0.8238"/>
<feComposite in2="hardAlpha" operator="arithmetic" k2="-1" k3="1"/>
<feColorMatrix type="matrix" values="0 0 0 0 1 0 0 0 0 1 0 0 0 0 1 0 0 0 0.08 0"/>
<feBlend mode="normal" in2="effect1_innerShadow_309_53" result="effect2_innerShadow_309_53"/>
</filter>
<linearGradient id="paint0_linear_309_53" x1="16.4651" y1="37.0413" x2="30.2007" y2="61.0366" gradientUnits="userSpaceOnUse">
<stop stop-color="#6784F9"/>
<stop offset="0.49523" stop-color="#9497FA"/>
<stop offset="1" stop-color="#E0D7FD"/>
</linearGradient>
<linearGradient id="paint1_linear_309_53" x1="15.7993" y1="18.9634" x2="29.5349" y2="42.9587" gradientUnits="userSpaceOnUse">
<stop stop-color="#DBE8FC"/>
<stop offset="0.49523" stop-color="#A0C3FC"/>
<stop offset="1" stop-color="#78A5FA"/>
</linearGradient>
</defs>
</svg>
